<svg xmlns="http://www.w3.org/2000/svg" xmlns:xlink="http://www.w3.org/1999/xlink" version="1.1" x="0px" y="0px"
     viewBox="0 0 32 32" enable-background="new 0 0 32 32" xml:space="preserve"><g display="none"><rect x="-247.328" y="-186.656" display="inline" fill="#000000" width="473.333" height="236"></rect></g>
    <g display="none"><g display="inline"><rect x="3.097" y="3.097" fill="#000000" stroke="#CCCCCC" stroke-miterlimit="10" width="26.215" height="26.215"></rect></g>
        <g display="inline"><g><rect x="8.773" y="8.773" transform="matrix(0.7071 -0.7071 0.7071 0.7071 -6.6274 16)" fill="#000000" width="14.454" height="14.454"></rect></g>
            <g><rect x="12.601" y="12.601" transform="matrix(0.7071 -0.7071 0.7071 0.7071 -6.6274 16)" width="6.797" height="6.797"></rect></g></g>
        <circle display="inline" cx="3.714" cy="3.714" r="3.714"></circle>
        <circle display="inline" cx="28.286" cy="3.714" r="3.714"></circle>
        <circle display="inline" cx="3.714" cy="28.286" r="3.714"></circle>
        <circle display="inline" cx="28.286" cy="28.286" r="3.714"></circle></g>
    <g display="none"><g display="inline"><path fill="#000000" d="M16,7.194L24.806,16L16,24.806L7.194,16L16,7.194 M16,5.78L5.78,16L16,26.22L26.22,16L16,5.78L16,5.78z"></path></g>
        <g display="inline"><path fill="#000000" d="M16,12.608L19.392,16L16,19.392L12.608,16L16,12.608 M16,11.194L11.194,16L16,20.806L20.806,16L16,11.194    L16,11.194z"></path></g>
        <path display="inline" fill="#000000"
              d="M3.714,25.572c1.496,0,2.714,1.217,2.714,2.714S5.21,31,3.714,31S1,29.783,1,28.286   S2.217,25.572,3.714,25.572 M3.714,24.572C1.663,24.572,0,26.235,0,28.286C0,30.337,1.663,32,3.714,32s3.714-1.663,3.714-3.714   C7.428,26.235,5.765,24.572,3.714,24.572L3.714,24.572z"></path>
        <path display="inline" fill="#000000"
              d="M25.075,28.312H6.925c-0.003,0.351-0.073,0.684-0.181,1h18.511   C25.148,28.996,25.078,28.663,25.075,28.312z"></path>
        <path display="inline" fill="#000000"
              d="M28.286,25.572c1.496,0,2.714,1.217,2.714,2.714S29.783,31,28.286,31   s-2.714-1.217-2.714-2.714S26.79,25.572,28.286,25.572 M28.286,24.572c-2.051,0-3.714,1.663-3.714,3.714   c0,2.051,1.663,3.714,3.714,3.714S32,30.337,32,28.286C32,26.235,30.337,24.572,28.286,24.572L28.286,24.572z"></path>
        <path display="inline" fill="#000000"
              d="M28.312,6.925v18.15c0.351,0.003,0.684,0.073,1,0.181V6.744   C28.996,6.852,28.663,6.922,28.312,6.925z"></path>
        <path display="inline" fill="#000000"
              d="M28.286,1C29.783,1,31,2.217,31,3.714s-1.217,2.714-2.714,2.714s-2.714-1.217-2.714-2.714   S26.79,1,28.286,1 M28.286,0c-2.051,0-3.714,1.663-3.714,3.714c0,2.051,1.663,3.714,3.714,3.714S32,5.765,32,3.714   C32,1.663,30.337,0,28.286,0L28.286,0z"></path>
        <path display="inline" fill="#000000"
              d="M3.714,6.927c-0.211,0-0.417-0.023-0.617-0.062v18.269c0.2-0.039,0.406-0.062,0.617-0.062   c0.131,0,0.256,0.023,0.383,0.039V6.889C3.97,6.904,3.845,6.927,3.714,6.927z"></path>
        <path display="inline" fill="#000000"
              d="M25.135,3.097H6.865c0.039,0.2,0.062,0.406,0.062,0.617c0,0.131-0.023,0.256-0.039,0.383   h18.222c-0.015-0.127-0.039-0.252-0.039-0.383C25.072,3.502,25.096,3.297,25.135,3.097z"></path>
        <path display="inline" fill="#000000"
              d="M3.714,1C5.21,1,6.428,2.217,6.428,3.714S5.21,6.428,3.714,6.428S1,5.21,1,3.714   S2.217,1,3.714,1 M3.714,0C1.663,0,0,1.663,0,3.714c0,2.051,1.663,3.714,3.714,3.714s3.714-1.663,3.714-3.714   C7.428,1.663,5.765,0,3.714,0L3.714,0z"></path></g>
    <g display="none"><g display="inline"><g><circle fill="#000000" cx="16" cy="16" r="16"></circle></g><g><g><circle fill="#000000" cx="3.583" cy="28.179" r="3.102"></circle></g>
        <g><path d="M3.714,25.572c1.496,0,2.714,1.217,2.714,2.714S5.21,31,3.714,31S1,29.783,1,28.286S2.217,25.572,3.714,25.572       M3.714,24.572C1.663,24.572,0,26.235,0,28.286C0,30.337,1.663,32,3.714,32s3.714-1.663,3.714-3.714      C7.428,26.235,5.765,24.572,3.714,24.572L3.714,24.572z"></path></g></g><g><path d="M25.075,28.312H6.925c-0.003,0.351-0.073,0.684-0.181,1h18.511C25.148,28.996,25.078,28.663,25.075,28.312z"></path></g><g><path d="M28.312,6.925v18.15c0.351,0.003,0.684,0.073,1,0.181V6.744C28.996,6.852,28.663,6.922,28.312,6.925z"></path></g><g><path d="M3.714,6.927c-0.211,0-0.417-0.023-0.617-0.062v18.269c0.2-0.039,0.406-0.062,0.617-0.062     c0.131,0,0.256,0.023,0.383,0.039V6.889C3.97,6.904,3.845,6.927,3.714,6.927z"></path></g><g><path d="M25.135,3.097H6.865c0.039,0.2,0.062,0.406,0.062,0.617c0,0.131-0.023,0.256-0.039,0.383h18.222     c-0.015-0.127-0.039-0.252-0.039-0.383C25.072,3.502,25.096,3.297,25.135,3.097z"></path></g><g><g><circle fill="#000000" cx="28.155" cy="28.179" r="3.102"></circle></g>
        <g><path d="M28.286,25.572c1.496,0,2.714,1.217,2.714,2.714S29.783,31,28.286,31s-2.714-1.217-2.714-2.714      S26.79,25.572,28.286,25.572 M28.286,24.572c-2.051,0-3.714,1.663-3.714,3.714c0,2.051,1.663,3.714,3.714,3.714      S32,30.337,32,28.286C32,26.235,30.337,24.572,28.286,24.572L28.286,24.572z"></path></g></g><g><g><circle fill="#000000" cx="3.583" cy="3.607" r="3.102"></circle></g>
        <g><path d="M3.714,1C5.21,1,6.428,2.217,6.428,3.714S5.21,6.428,3.714,6.428S1,5.21,1,3.714S2.217,1,3.714,1 M3.714,0      C1.663,0,0,1.663,0,3.714c0,2.051,1.663,3.714,3.714,3.714s3.714-1.663,3.714-3.714C7.428,1.663,5.765,0,3.714,0L3.714,0z"></path></g></g><g><g><circle fill="#000000" cx="28.155" cy="3.607" r="3.102"></circle></g>
        <g><path d="M28.286,1C29.783,1,31,2.217,31,3.714s-1.217,2.714-2.714,2.714s-2.714-1.217-2.714-2.714S26.79,1,28.286,1 M28.286,0      c-2.051,0-3.714,1.663-3.714,3.714c0,2.051,1.663,3.714,3.714,3.714S32,5.765,32,3.714C32,1.663,30.337,0,28.286,0L28.286,0z"></path></g></g></g>
        <g display="inline"><g><rect x="9.273" y="9.273" transform="matrix(0.7071 -0.7071 0.7071 0.7071 -6.6273 15.9989)" fill="#000000" width="13.454" height="13.454"></rect></g>
            <g><path d="M16,7.194L24.806,16L16,24.806L7.194,16L16,7.194 M16,5.78L5.78,16L16,26.22L26.22,16L16,5.78L16,5.78z"></path></g></g>
        <g display="inline"><g><rect x="13.102" y="13.101" transform="matrix(0.7072 -0.707 0.707 0.7072 -6.6273 15.9973)" fill="#000000" width="5.797" height="5.797"></rect></g>
            <g><g><path d="M16,12.608L19.392,16L16,19.392L12.608,16L16,12.608 M16,11.194L11.194,16L16,20.806L20.806,16L16,11.194L16,11.194z"></path></g></g></g></g>
    <g><g><rect x="8.773" y="8.773" transform="matrix(0.7071 -0.7071 0.7071 0.7071 -6.6274 16)" width="14.454" height="14.454"></rect><path
            d="M32,3.714C32,1.663,30.337,0,28.286,0c-1.659,0-3.047,1.095-3.524,2.596H7.238C6.761,1.095,5.373,0,3.714,0    C1.663,0,0,1.663,0,3.714c0,1.659,1.095,3.048,2.597,3.524v17.524C1.095,25.238,0,26.627,0,28.286C0,30.337,1.663,32,3.714,32    c1.506,0,2.795-0.9,3.378-2.188h17.816C25.491,31.1,26.78,32,28.286,32C30.337,32,32,30.337,32,28.286    c0-1.506-0.9-2.796-2.188-3.379V7.092C31.1,6.509,32,5.22,32,3.714z M28.812,24.625c-0.173-0.025-0.346-0.053-0.526-0.053    c-2.051,0-3.714,1.663-3.714,3.714c0,0.18,0.028,0.353,0.053,0.526H7.375c0.025-0.173,0.053-0.346,0.053-0.526    c0-2.051-1.663-3.714-3.714-3.714c-0.04,0-0.077,0.01-0.117,0.012V7.416c0.04,0.001,0.077,0.012,0.117,0.012    c2.051,0,3.714-1.663,3.714-3.714c0-0.04-0.011-0.078-0.012-0.117h17.168c-0.001,0.04-0.012,0.077-0.012,0.117    c0,2.051,1.663,3.714,3.714,3.714c0.18,0,0.352-0.028,0.526-0.053V24.625z"></path></g></g></svg>